<?xml version="1.0" encoding="UTF-8"?><svg xmlns="http://www.w3.org/2000/svg" xmlns:xlink="http://www.w3.org/1999/xlink" viewBox="0 0 181.46 30.23"><defs><style>.f{fill:#fff;}.g{fill:#e30613;}.h{fill:#4e4d4d;}.i{stroke:#4e4d4d;stroke-miterlimit:10;stroke-width:.86px;}.i,.j{fill:none;}.k{clip-path:url(#e);}.l{clip-path:url(#d);}</style><clipPath id="d"><rect class="j" x="49.9" width="21.37" height="30.23"/></clipPath><clipPath id="e"><rect class="j" x="49.9" width="21.37" height="30.23"/></clipPath></defs><g id="a"/><g id="b"><g id="c"><g><path class="h" d="M12.04,19.2c0,2.57-2.15,4.48-5.36,4.48H0V6.55H5.7c3.79,0,5.85,2.06,5.85,4.67,0,1.93-1.42,3.38-3.06,3.79,1.91,.37,3.55,1.96,3.55,4.18ZM2.32,8.7v5.58h3.16c2.18,0,3.69-1.08,3.69-2.74,0-1.81-1.27-2.84-3.45-2.84H2.32Zm7.34,10.33c0-1.54-1.39-2.81-3.43-2.81H2.32v5.31h3.92c2.03,0,3.43-.93,3.43-2.5Z"/><path class="h" d="M14.67,15.11c0-5.06,3.92-8.86,8.93-8.86s8.95,3.82,8.95,8.86-3.99,8.86-8.95,8.86-8.93-3.79-8.93-8.86Zm15.51,0c0-3.84-2.99-6.7-6.58-6.7s-6.56,2.96-6.56,6.7,2.81,6.7,6.56,6.7,6.58-2.91,6.58-6.7Z"/><path class="h" d="M48.1,21.53v2.15h-13.56l-.56-.88,9.79-14.09h-8.96v-2.15h13.07v.42l-10.28,14.56h10.5Z"/></g><g><path class="h" d="M90.82,14.72v.49c0,5.26-3.74,8.76-8.52,8.76s-9.08-3.55-9.08-8.78,4.14-8.93,9.08-8.93c2.32,0,5.04,.88,6.73,2.72l-1.37,1.54-.17,.02c-1.35-1.39-3.28-2.13-5.19-2.13-3.57,0-6.7,2.72-6.7,6.78s3.2,6.63,6.7,6.63c3.08,0,5.55-2.06,6.02-4.97h-5.75v-2.13h8.25Z"/><path class="h" d="M107.37,23.46l-.17,.22h-2.64l-6.44-6.56h-1.49v6.56h-2.32V6.55h4.97c4.09,0,6.8,1.96,6.8,5.29,0,2.84-1.96,4.67-5.06,5.16l6.36,6.46Zm-10.74-8.42h2.64c2.67,.02,4.43-1.25,4.43-3.2s-1.76-3.13-4.43-3.13h-2.64v6.34Z"/><path class="h" d="M121.42,19.84h-9.15l-1.86,3.84h-2.4l8.32-17.13h1l8.34,17.13h-2.4l-1.86-3.84Zm-1.03-2.13l-3.55-7.32-3.55,7.32h7.1Z"/><path class="h" d="M139.71,12.08c0,3.33-2.72,5.51-6.8,5.51h-2.3v6.09h-2.32V6.55h4.62c4.09,0,6.8,2.2,6.8,5.53Zm-2.37,0c0-2.2-1.79-3.38-4.43-3.38h-2.3v6.7h2.3c2.64,.02,4.43-1.15,4.43-3.33Z"/><path class="h" d="M157.93,6.55V23.68h-2.33v-7.34h-10.25v7.34h-2.33V6.55h2.33v7.66h10.25V6.55h2.33Z"/><path class="h" d="M177.07,6.55v.22l-6.93,9.13v7.78h-2.33v-7.76l-6.95-9.15v-.22h2.42l5.68,7.51,5.68-7.51h2.42Z"/></g><g class="l"><g class="k"><path class="h" d="M60.58,6.87c-4.63,0-8.38,3.75-8.38,8.38s3.75,8.38,8.38,8.38,8.38-3.75,8.38-8.38-3.75-8.38-8.38-8.38m3.21,8.51c-.07,.16-.65,1.4-.65,1.4l-.79,1.27s-.28,.07-.65,.1c-.18,.01-.79,.1-1.38,.09-.68-.01-1.33-.13-1.33-.13,0,0-.04,.01-.23-.24-.19-.26-.32-.45-.32-.45l-.66-.94-.34-.69-.14-.49s.06-.2,.07-.21l.3-.69,.65-1.38,.22-.43s.54-.28,.97-.28c.43,0,2.49,0,2.49,0l.15,.05s.12,.13,.14,.17c.02,.03,.74,.94,.74,.94l.79,1.47v.27s.02,0-.05,.16"/><path class="f" d="M67.98,13.73s-.08-.03-.12-.04l-.13-.04c-.09-.03-.18-.06-.27-.09-.18-.06-.36-.11-.54-.17-.37-.11-.73-.21-1.1-.3-.74-.19-1.49-.35-2.25-.47-.38-.06-.76-.12-1.14-.16-.38-.04-.77-.07-1.15-.1-.38-.02-.77-.02-1.16-.02-.39,.01-.77,.04-1.16,.09,.37-.12,.75-.21,1.14-.29,.39-.08,.77-.14,1.17-.19,.39-.05,.79-.09,1.18-.11,.4-.02,.79-.04,1.19-.04,.79,0,1.59,.02,2.38,.07,.4,.03,.79,.06,1.19,.11,.2,.02,.4,.05,.6,.07,.1,.01,.2,.03,.3,.04l.15,.02c.05,0,.1,.02,.16,.03l-.42,1.6Z"/><path class="f" d="M65.6,20.9s-.02-.09-.02-.13l-.03-.14c-.02-.09-.04-.18-.06-.28-.04-.18-.08-.37-.13-.55-.09-.37-.19-.74-.29-1.11-.21-.74-.45-1.47-.71-2.18-.14-.36-.28-.72-.43-1.07-.15-.35-.32-.7-.49-1.04-.18-.34-.36-.68-.57-1.01-.2-.33-.42-.65-.66-.96,.29,.26,.56,.55,.82,.84,.26,.29,.51,.6,.75,.91,.24,.32,.47,.64,.69,.97,.22,.33,.43,.67,.63,1.01,.4,.68,.78,1.38,1.13,2.1,.17,.36,.34,.72,.5,1.09,.08,.18,.16,.37,.24,.55,.04,.09,.08,.19,.11,.28l.06,.14s.04,.09,.06,.15l-1.59,.44Z"/><path class="f" d="M58.19,22.42s.07-.06,.1-.09l.11-.09c.07-.06,.14-.13,.21-.19,.14-.13,.28-.26,.42-.39,.28-.26,.55-.53,.81-.8,.53-.55,1.05-1.12,1.54-1.71,.24-.3,.48-.6,.71-.91,.23-.31,.45-.63,.66-.95,.21-.32,.41-.66,.59-.99,.18-.34,.35-.69,.51-1.05-.09,.38-.19,.76-.32,1.13-.13,.37-.27,.74-.42,1.11-.15,.36-.32,.72-.5,1.08-.18,.35-.36,.7-.56,1.05-.39,.69-.81,1.37-1.26,2.02-.22,.33-.45,.66-.69,.98-.12,.16-.24,.32-.36,.48-.06,.08-.12,.16-.19,.24l-.1,.12s-.06,.08-.1,.12l-1.17-1.16Z"/><path class="f" d="M53.17,16.77s.08,.03,.12,.04l.13,.04c.09,.03,.18,.06,.27,.09,.18,.06,.36,.11,.54,.17,.37,.11,.73,.21,1.1,.3,.74,.19,1.49,.35,2.25,.47,.38,.06,.76,.12,1.14,.16,.38,.04,.77,.07,1.15,.1,.38,.02,.77,.02,1.16,.02,.39-.01,.77-.04,1.16-.09-.37,.12-.75,.21-1.14,.29-.39,.08-.77,.14-1.17,.19-.39,.05-.79,.09-1.18,.11-.4,.02-.79,.04-1.19,.04-.79,0-1.59-.02-2.38-.07-.4-.03-.79-.06-1.19-.11-.2-.02-.4-.05-.6-.07-.1-.01-.2-.03-.3-.04l-.15-.02c-.05,0-.1-.02-.16-.03l.42-1.6Z"/><path class="f" d="M55.56,9.59s.02,.09,.02,.13l.03,.14c.02,.09,.04,.18,.06,.28,.04,.18,.08,.37,.13,.56,.09,.37,.19,.74,.29,1.11,.21,.74,.44,1.47,.71,2.19,.13,.36,.28,.72,.43,1.07,.15,.35,.32,.7,.49,1.05,.18,.34,.36,.68,.56,1.01,.2,.33,.42,.65,.66,.96-.29-.27-.56-.55-.82-.84-.26-.3-.51-.6-.75-.92-.24-.32-.47-.64-.68-.97-.22-.33-.43-.67-.63-1.01-.4-.68-.78-1.38-1.12-2.1-.17-.36-.34-.72-.5-1.09-.08-.18-.16-.37-.23-.55-.04-.09-.08-.19-.11-.28l-.06-.14s-.04-.09-.06-.15l1.59-.43Z"/><path class="f" d="M62.96,8.08s-.07,.06-.1,.09l-.1,.09c-.07,.06-.14,.13-.21,.19-.14,.13-.28,.26-.42,.39-.28,.26-.55,.53-.81,.81-.53,.55-1.05,1.12-1.54,1.71-.24,.3-.48,.6-.71,.91-.23,.31-.45,.63-.66,.95-.21,.32-.41,.66-.59,1-.18,.34-.35,.69-.5,1.05,.09-.38,.19-.76,.31-1.13,.13-.37,.27-.74,.42-1.11,.15-.36,.32-.72,.5-1.08,.18-.35,.36-.7,.56-1.05,.39-.69,.81-1.37,1.26-2.03,.22-.33,.45-.66,.69-.98,.12-.16,.24-.32,.36-.48,.06-.08,.12-.16,.19-.24l.1-.12s.06-.08,.1-.12l1.17,1.16Z"/><path class="f" d="M60.58,7.86c1.97,0,3.83,.77,5.23,2.16,1.4,1.4,2.16,3.25,2.16,5.23s-.77,3.83-2.16,5.23c-1.4,1.4-3.25,2.16-5.23,2.16s-3.83-.77-5.23-2.16c-1.4-1.4-2.16-3.25-2.16-5.23s.77-3.83,2.16-5.23c1.4-1.4,3.25-2.16,5.23-2.16m0-1.54c-4.93,0-8.93,4-8.93,8.93s4,8.93,8.93,8.93,8.93-4,8.93-8.93-4-8.93-8.93-8.93"/><circle class="i" cx="60.58" cy="15.25" r="8.57" transform="translate(-.08 .3) rotate(-.29)"/><path class="f" d="M55.51,8.54s.08-.02,.11-.04c.05-.04,.06-.09,.03-.13-.03-.04-.07-.04-.14-.03-.08,.02-.15,.02-.19-.04-.05-.06-.03-.15,.05-.21,.04-.03,.08-.04,.1-.05l.02,.05s-.05,.01-.09,.04c-.06,.04-.05,.09-.03,.12,.03,.04,.07,.04,.14,.02,.09-.02,.15-.02,.19,.04,.05,.06,.04,.15-.06,.22-.04,.03-.09,.05-.12,.05l-.02-.05Z"/><rect class="f" x="55.72" y="7.91" width=".06" height=".5" transform="translate(5.05 32.74) rotate(-34.19)"/><path class="f" d="M56.32,8.07s-.06,.07-.12,.11c-.06,.04-.13,.06-.19,.04-.06-.01-.12-.06-.16-.12-.08-.13-.05-.27,.09-.36,.05-.03,.09-.04,.12-.05v.05s-.05,.01-.09,.04c-.1,.06-.13,.17-.06,.28,.07,.11,.17,.13,.27,.07,.04-.02,.06-.04,.07-.06l-.08-.13-.09,.05-.03-.04,.14-.09,.13,.2Z"/><path class="f" d="M56.68,7.65c-.04-.06-.08-.13-.11-.19h0c.01,.06,.02,.13,.03,.2l.04,.26-.04,.02-.18-.17c-.05-.05-.1-.1-.14-.14h0c.03,.06,.07,.13,.1,.2l.09,.2-.05,.03-.21-.46,.07-.04,.19,.17s.09,.08,.12,.12h0c-.01-.05-.02-.11-.03-.18l-.04-.26,.07-.04,.27,.43-.06,.03-.12-.19Z"/><path class="f" d="M56.93,7.59l.02,.17-.06,.03-.06-.53,.07-.03,.37,.38-.06,.03-.12-.12-.16,.07Zm.13-.12l-.11-.11s-.04-.05-.06-.07h0s.01,.06,.02,.09l.02,.15,.14-.06Z"/><polygon class="f" points="57.71 6.99 57.71 6.99 57.64 7.06 57.61 7.01 57.69 6.93 57.75 6.91 57.91 7.36 57.85 7.39 57.71 6.99"/><path class="f" d="M58.21,6.81s-.03,0-.05,.02c-.09,.05-.12,.13-.11,.21h0s.04-.07,.1-.09c.08-.02,.16,.02,.18,.11,.03,.08,0,.18-.11,.21-.1,.03-.19-.03-.22-.15-.03-.09-.02-.17,.02-.23,.03-.05,.07-.09,.13-.11,.02,0,.03-.01,.04-.02l.02,.05Zm.06,.27c-.02-.07-.07-.1-.13-.08-.04,.01-.07,.05-.07,.08,0,0,0,.02,0,.03,.02,.08,.08,.12,.14,.1,.05-.02,.08-.07,.06-.14"/><path class="f" d="M58.39,6.94s-.02-.07-.02-.09h.06l.02,.04h0s.04-.08,.1-.09c.05-.01,.09,0,.12,.05h0s.02-.04,.03-.06c.02-.02,.04-.03,.07-.04,.05-.01,.12,0,.15,.13l.05,.21h-.06l-.05-.18c-.02-.07-.05-.1-.1-.09-.04,0-.06,.04-.06,.08,0,0,0,.02,0,.03l.05,.22h-.06l-.05-.2c-.01-.06-.05-.09-.1-.08-.04,0-.06,.05-.06,.08,0,.01,0,.02,0,.03l.05,.21h-.06l-.06-.24Z"/><path class="f" d="M59,6.8s-.01-.07-.02-.1h.06v.05h.01s.04-.07,.1-.08c.05,0,.09,.02,.11,.06h0s.02-.04,.03-.05c.02-.02,.04-.03,.07-.04,.05,0,.12,.01,.14,.14l.03,.21h-.06l-.03-.19c-.01-.07-.04-.11-.09-.1-.04,0-.06,.04-.07,.07,0,0,0,.02,0,.03l.03,.22h-.06l-.03-.2c0-.06-.04-.09-.09-.09-.04,0-.06,.04-.07,.08,0,.01,0,.02,0,.03l.03,.21h-.06l-.04-.25Z"/><polygon class="f" points="60.25 6.51 60.25 6.51 60.17 6.56 60.16 6.51 60.26 6.45 60.31 6.44 60.33 6.93 60.27 6.93 60.25 6.51"/><path class="f" d="M60.51,6.62s.02-.05,.04-.05c.03,0,.04,.02,.04,.05,0,.03-.02,.05-.04,.05-.03,0-.04-.02-.04-.05m0,.26s.02-.05,.04-.05c.03,0,.04,.02,.04,.05,0,.03-.02,.05-.04,.05-.03,0-.04-.02-.04-.05"/><polygon class="f" points="60.81 6.51 60.81 6.51 60.72 6.55 60.71 6.5 60.82 6.44 60.87 6.45 60.86 6.93 60.8 6.93 60.81 6.51"/><path class="f" d="M61.04,6.9s.02-.05,.05-.04c.03,0,.04,.02,.04,.05,0,.03-.02,.05-.05,.04-.03,0-.04-.02-.04-.05"/><path class="f" d="M61.38,6.97v-.13l-.21-.02v-.04l.25-.29h.07l-.03,.31h.07v.06h-.07v.13h-.07Zm.02-.19v-.16s.02-.05,.02-.08h0s-.03,.05-.05,.07l-.13,.15h0l.16,.02Z"/><path class="f" d="M62.73,6.7s.09,.01,.14,.03c.09,.02,.15,.06,.18,.11,.03,.05,.04,.11,.02,.19-.02,.08-.06,.14-.12,.17-.06,.03-.14,.04-.23,.01-.04-.01-.08-.02-.11-.04l.13-.48Zm-.06,.45s.04,.01,.06,.02c.13,.04,.23-.02,.26-.15,.03-.11-.01-.2-.14-.24-.03,0-.06-.01-.08-.01l-.11,.38Z"/><path class="f" d="M63.41,7.4s-.08,0-.13-.02c-.13-.05-.21-.16-.15-.32,.05-.15,.18-.22,.33-.17,.06,.02,.09,.05,.11,.06l-.03,.05s-.05-.04-.09-.05c-.11-.04-.21,0-.25,.13-.04,.12,0,.21,.12,.25,.04,.01,.08,.02,.11,.01v.05Z"/><path class="f" d="M63.98,7.11s.08,.03,.13,.05c.09,.04,.14,.08,.16,.14,.02,.06,.02,.12,0,.19-.03,.07-.08,.13-.15,.15-.06,.02-.14,.02-.23-.02-.04-.02-.08-.04-.11-.05l.2-.45Zm-.12,.43s.04,.02,.06,.03c.13,.06,.23,.02,.28-.11,.05-.11,.02-.2-.11-.26-.03-.01-.06-.02-.07-.02l-.16,.36Z"/><path class="f" d="M64.22,7.76l.23-.45,.06,.03,.03,.3c0,.07,0,.13,0,.19h0c.03-.06,.05-.12,.09-.19l.1-.19,.05,.03-.23,.45-.06-.03-.03-.3c0-.07,0-.13,0-.19h0c-.03,.06-.05,.11-.09,.19l-.1,.19-.05-.03Z"/><path class="f" d="M64.87,8.12l.07-.03c-.01-.06,0-.13,.04-.19,.09-.13,.23-.17,.34-.1,.04,.02,.07,.06,.08,.1l.07-.03,.02,.04-.07,.03c.01,.06,0,.13-.04,.19-.09,.15-.23,.16-.33,.1-.04-.03-.07-.06-.09-.1l-.07,.03-.02-.04Zm.49-.2s-.03-.06-.06-.08c-.09-.06-.19,0-.25,.09-.03,.05-.04,.09-.04,.13h0l.35-.14Zm-.34,.19s.03,.06,.06,.08c.09,.06,.19,0,.25-.09,.02-.04,.04-.08,.04-.13h0l-.35,.14Z"/><path class="f" d="M65.76,8.19s-.02-.02-.04-.03c-.09-.05-.18-.02-.24,.04h0s.08,0,.13,.02c.07,.05,.08,.14,.03,.21-.05,.07-.15,.1-.23,.05-.08-.06-.09-.16-.02-.27,.06-.08,.13-.12,.19-.13,.06,0,.11,0,.17,.03,.02,0,.03,.02,.04,.02l-.03,.04Zm-.18,.22c.04-.06,.03-.11-.02-.15-.03-.02-.08-.02-.11,0,0,0-.02,0-.02,.02-.05,.07-.05,.13,0,.17,.05,.03,.1,.02,.14-.04"/><polygon class="f" points="66.14 8.42 66.11 8.45 65.67 8.67 65.62 8.62 66.05 8.42 66.05 8.42 65.86 8.27 65.9 8.23 66.14 8.42"/><path class="f" d="M57.81,23.38c.02-.07,.05-.16,.07-.22h0c-.04,.05-.08,.11-.13,.17l-.18,.21-.05-.02v-.27c0-.08,.01-.15,.02-.22h0c-.02,.06-.06,.14-.09,.22l-.09,.21-.06-.02,.22-.49,.08,.03v.27c0,.07,0,.13-.01,.19h0s.07-.09,.11-.15l.18-.21,.08,.03-.15,.51-.06-.02,.07-.22Z"/><path class="f" d="M58.09,23.54l-.1,.15-.07-.02,.32-.46,.08,.02,.03,.56-.07-.02v-.18l-.19-.05Zm.18,0v-.16s0-.07,0-.1h0s-.03,.06-.05,.08l-.09,.13,.15,.04Z"/><path class="f" d="M58.6,23.31s.09,0,.15,.02c.1,.02,.16,.06,.2,.11,.04,.05,.05,.12,.03,.2-.02,.08-.06,.15-.12,.19-.06,.04-.15,.05-.25,.02-.05-.01-.09-.02-.12-.03l.11-.51Zm-.03,.47s.04,.01,.07,.02c.14,.03,.24-.03,.27-.17,.03-.12-.02-.22-.17-.25-.03,0-.06-.01-.08-.01l-.09,.41Z"/><polygon class="f" points="59.38 23.74 59.18 23.71 59.15 23.9 59.37 23.93 59.36 23.99 59.07 23.94 59.15 23.42 59.44 23.46 59.43 23.52 59.21 23.49 59.18 23.65 59.39 23.69 59.38 23.74"/><rect class="f" x="59.77" y="23.76" width=".53" height=".07" transform="translate(32.58 82.24) rotate(-86.45)"/><path class="f" d="M60.23,24.07v-.53h.08l.17,.27c.04,.06,.07,.12,.09,.17h0c0-.07,0-.14,0-.22v-.22h.07v.53h-.08l-.16-.27c-.04-.06-.07-.12-.1-.18h0c0,.07,0,.13,0,.22v.23h-.07Z"/><path class="f" d="M61.42,23.5h.07l.04,.35c.01,.14-.05,.19-.14,.2-.03,0-.06,0-.07,0v-.06s.04,0,.06,0c.06,0,.09-.04,.08-.14l-.04-.35Z"/><path class="f" d="M61.78,23.82l-.03,.17h-.07l.1-.54h.08l.26,.49h-.07l-.08-.15-.19,.03Zm.16-.08l-.07-.14s-.03-.06-.04-.09h0s0,.07-.01,.1l-.03,.16,.16-.02Z"/><path class="f" d="M62.15,23.4s.07-.03,.13-.04c.07-.01,.12,0,.16,.01,.03,.02,.06,.05,.07,.1,0,.05,0,.09-.02,.12-.03,.05-.08,.08-.15,.09-.02,0-.04,0-.06,0l.04,.21h-.07l-.11-.5Zm.12,.24s.03,0,.06,0c.08-.02,.12-.07,.11-.14-.01-.07-.07-.09-.14-.08-.03,0-.05,.01-.06,.02l.04,.2Z"/><path class="f" d="M62.7,23.64v.18l-.08,.02,.04-.56,.08-.02,.31,.47-.07,.02-.1-.15-.18,.05Zm.15-.1l-.09-.13s-.04-.06-.05-.09h0s0,.07,0,.1v.16l.14-.04Z"/><path class="f" d="M63.19,23.68l-.17-.5,.07-.02,.25,.2c.06,.05,.1,.09,.15,.13h0c-.03-.07-.05-.13-.08-.21l-.07-.21,.06-.02,.17,.5-.07,.02-.25-.2c-.05-.04-.11-.09-.15-.14h0c.03,.06,.05,.12,.07,.21l.07,.22-.06,.02Z"/></g></g><circle class="g" cx="180.33" cy="3.62" r="1.13"/></g></g></svg>